<svg width="26" height="26" viewBox="0 0 26 26" fill="none" xmlns="http://www.w3.org/2000/svg">
<g opacity="0.7">
<path d="M19.2279 0.94458H7.7542C4.01997 0.94458 0.982056 3.98032 0.982056 7.71185V19.1775C0.982056 22.9088 4.01997 25.9446 7.7542 25.9446H19.2281C22.9621 25.9446 26 22.9088 26 19.1775V7.71185C26 3.98032 22.9621 0.94458 19.2279 0.94458V0.94458ZM24.5334 19.1775C24.5334 22.1007 22.1534 24.479 19.2279 24.479H7.7542C4.8287 24.479 2.44872 22.1007 2.44872 19.1775V7.71185C2.44872 4.78846 4.8287 2.41019 7.7542 2.41019H19.2281C22.1534 2.41019 24.5334 4.78846 24.5334 7.71185V19.1775Z" fill="white"/>
<path d="M13.4907 6.60913C9.71867 6.60913 6.65002 9.67557 6.65002 13.4449C6.65002 17.2142 9.71867 20.2806 13.4907 20.2806C17.2627 20.2806 20.3314 17.2142 20.3314 13.4449C20.3314 9.67557 17.2627 6.60913 13.4907 6.60913ZM13.4907 18.815C10.5276 18.815 8.11669 16.406 8.11669 13.4449C8.11669 10.4839 10.5276 8.07474 13.4907 8.07474C16.454 8.07474 18.8647 10.4839 18.8647 13.4449C18.8647 16.406 16.454 18.815 13.4907 18.815Z" fill="white"/>
<path d="M20.4953 4.18115C19.3806 4.18115 18.474 5.08381 18.474 6.19317C18.474 7.30273 19.3806 8.20539 20.4953 8.20539C21.61 8.20539 22.5168 7.30273 22.5168 6.19317C22.5168 5.08362 21.61 4.18115 20.4953 4.18115ZM20.4953 6.74529C20.1895 6.74529 19.9406 6.49754 19.9406 6.19317C19.9406 5.88862 20.1895 5.64106 20.4953 5.64106C20.8013 5.64106 21.0502 5.88862 21.0502 6.19317C21.0502 6.49754 20.8013 6.74529 20.4953 6.74529Z" fill="white"/>
</g>
</svg>
