<svg width="26" height="32" viewBox="0 0 26 32" fill="none" xmlns="http://www.w3.org/2000/svg">
<path d="M24.0246 20.3244C25.8571 23.7838 25.8571 27.2988 25.8571 32.0001H13.0298L0.202515 32.0001C0.202516 27.2988 -0.370622 22.7838 2.03496 19.4595C2.97374 18.1622 3.40934 17.2974 6.15805 15.5676C7.07428 16.4325 8.44861 18.1622 13.0298 18.1622C17.1528 18.1622 19.3843 16.8649 20.0507 16.4325C22.5912 17.7298 22.6503 18.5947 24.0246 20.3244Z" fill="#FFCC33" fill-opacity="0.8"/>
<path d="M20.7143 7.78378C20.7143 9.86145 19.9076 11.749 18.5929 13.1449C17.1874 14.6372 15.2014 15.5676 13.0001 15.5676C10.7987 15.5676 8.81267 14.6372 7.40718 13.1449C6.09252 11.749 5.28577 9.86145 5.28577 7.78378C5.28577 3.48492 8.73957 0 13.0001 0C17.2605 0 20.7143 3.48492 20.7143 7.78378Z" fill="#FFCC33" fill-opacity="0.8"/>
</svg>
