<svg width="30" height="26" viewBox="0 0 30 26" fill="none" xmlns="http://www.w3.org/2000/svg">
<path opacity="0.7" d="M28.5777 1.62902C28.2354 1.1876 27.7228 0.94458 27.134 0.94458C26.814 0.94458 26.475 1.01559 26.1265 1.15604L2.40804 10.7041C1.14933 11.2107 0.979803 11.9709 0.990706 12.3789C1.00161 12.787 1.21175 13.5359 2.49569 13.9667C2.50339 13.9692 2.51108 13.9717 2.51878 13.9739L7.43862 15.4587L10.0993 23.4821C10.4621 24.5759 11.2763 25.2554 12.2246 25.2554C12.8226 25.2554 13.4107 24.9912 13.9254 24.4916L16.9685 21.5368L21.3824 25.2847L21.3839 25.2858L21.4258 25.3215C21.4296 25.3246 21.4337 25.328 21.4375 25.3312C21.9282 25.7324 22.4637 25.9444 22.9868 25.9446C24.0088 25.9446 24.8229 25.1467 25.06 23.9122L28.9462 3.67579C29.1023 2.86353 28.9714 2.13671 28.5777 1.62902ZM9.08449 15.1766L18.5764 10.063L12.6661 16.6857C12.5693 16.7942 12.5006 16.927 12.4669 17.0715L11.3272 21.9396L9.08449 15.1766ZM12.8132 23.2179C12.7738 23.256 12.7343 23.29 12.6947 23.3214L13.7521 18.8053L15.6754 20.4386L12.8132 23.2179ZM27.3371 3.332L23.4509 23.5687C23.4135 23.7623 23.294 24.213 22.9868 24.213C22.835 24.213 22.6443 24.1257 22.4491 23.9672L17.4476 19.7204L17.4453 19.7186L14.4693 17.1914L23.0163 7.61401C23.2899 7.30741 23.3147 6.83782 23.0751 6.50101C22.8352 6.1642 22.4006 6.05825 22.0451 6.24987L7.9876 13.8233L3.00084 12.3187L26.712 2.77358C26.9123 2.69287 27.0522 2.67596 27.134 2.67596C27.1843 2.67596 27.2736 2.68228 27.3068 2.72533C27.3504 2.78147 27.406 2.97287 27.3371 3.332Z" fill="white"/>
</svg>
