<svg width="39" height="26" viewBox="0 0 39 26" fill="none" xmlns="http://www.w3.org/2000/svg">
<path opacity="0.7" d="M19.2432 25.9446C24.7444 25.9446 22.7829 22.2812 23.2075 21.2279C23.2012 20.4412 23.1948 19.6846 23.2202 19.2246C23.5688 19.3279 24.3911 19.7662 26.0896 21.5029C28.7119 24.2862 29.3821 25.9446 31.5005 25.9446H35.3999C36.6358 25.9446 37.2791 25.4062 37.6007 24.9546C37.9112 24.5179 38.2155 23.7512 37.8827 22.5579C37.0129 19.6846 31.9394 14.7229 31.6241 14.1996C31.6717 14.1029 31.7477 13.9746 31.7873 13.9079H31.7842C32.7855 12.5162 36.6072 6.49291 37.1697 4.08291C37.1713 4.07958 37.1729 4.07458 37.1729 4.06958C37.4771 2.96958 37.1982 2.25625 36.9099 1.85291C36.4757 1.24958 35.7849 0.94458 34.8517 0.94458H30.9523C29.6467 0.94458 28.6564 1.63625 28.1558 2.89791C27.3176 5.13958 24.9631 9.74958 23.198 11.3812C23.1441 9.06958 23.1806 7.30458 23.2091 5.99291C23.2661 3.43458 23.4499 0.94458 20.9259 0.94458H14.7972C13.2159 0.94458 11.7028 2.76125 13.3411 4.91791C14.7735 6.80791 13.8561 7.86125 14.165 13.1046C12.9608 11.7462 10.8187 8.07791 9.30392 3.38958C8.87928 2.12125 8.236 0.946247 6.42496 0.946247H2.52562C0.944335 0.946247 0 1.85291 0 3.37125C0 6.78125 7.176 25.9446 19.2432 25.9446ZM6.42496 3.44625C6.76879 3.44625 6.80365 3.44625 7.05875 4.20791C8.60993 9.01291 12.0894 16.1229 14.6309 16.1229C16.5401 16.1229 16.5401 14.0646 16.5401 13.2896L16.5385 7.11958C16.434 5.07791 15.7273 4.06125 15.2631 3.44458L20.8213 3.45125C20.8245 3.47958 20.7896 10.2762 20.8372 11.9229C20.8372 14.2612 22.6022 15.6012 25.3576 12.6679C28.2651 9.21625 30.2758 4.05625 30.3566 3.84625C30.4754 3.54625 30.5784 3.44458 30.9523 3.44458H34.8517H34.8675C34.8659 3.44958 34.8659 3.45458 34.8643 3.45958C34.5078 5.20958 30.9888 10.7862 29.8115 12.5179C29.7925 12.5446 29.7751 12.5729 29.7576 12.6012C29.2395 13.4912 28.8181 14.4746 29.8289 15.8579H29.8305C29.9224 15.9746 30.1617 16.2479 30.5103 16.6279C31.594 17.8046 35.3112 21.8279 35.6407 23.4279C35.4221 23.4646 35.1844 23.4379 31.5005 23.4462C30.7162 23.4462 30.1031 22.2129 27.7628 19.7296C25.6587 17.5762 24.2929 16.6962 23.0491 16.6962C20.6344 16.6962 20.8102 18.7579 20.8324 21.2512C20.8403 23.9546 20.8245 23.0996 20.8419 23.2696C20.7009 23.3279 20.2969 23.4446 19.2432 23.4446C9.18984 23.4446 2.64287 6.65958 2.39094 3.45125C2.47809 3.44291 3.67752 3.44791 6.42496 3.44625Z" fill="white"/>
</svg>
